<?xml version="1.0" standalone="no"?>
<!DOCTYPE svg PUBLIC "-//W3C//DTD SVG 20010904//EN"
 "http://www.w3.org/TR/2001/REC-SVG-20010904/DTD/svg10.dtd">
<svg version="1.0" xmlns="http://www.w3.org/2000/svg"
 width="512.000000pt" height="512.000000pt" viewBox="0 0 512.000000 512.000000"
 preserveAspectRatio="xMidYMid meet">
<metadata>
Created by potrace 1.14, written by Peter Selinger 2001-2017
</metadata>
<g transform="translate(0.000000,512.000000) scale(0.100000,-0.100000)"
fill="#000000" stroke="none">
<path d="M1925 5110 c-22 -5 -55 -11 -73 -14 -51 -10 -160 -53 -230 -92 -105
-59 -188 -131 -274 -238 l-40 -50 -71 -2 c-108 -3 -159 -12 -255 -43 -311
-102 -539 -354 -610 -676 -13 -59 -15 -173 -15 -745 0 -371 2 -687 5 -701 22
-98 118 -194 225 -224 30 -8 91 -9 139 -1 l39 7 0 -928 c-1 -960 1 -1004 40
-1098 61 -142 194 -254 346 -290 94 -22 2155 -21 2238 1 186 50 334 208 367
394 4 25 8 120 8 212 1 91 4 169 7 172 3 3 131 6 285 7 206 1 293 5 333 15
186 49 335 210 368 399 8 49 9 1800 1 1870 -18 147 -126 297 -266 367 -37 19
-81 38 -97 43 -17 4 -165 10 -330 14 l-300 6 0 147 0 148 43 42 c156 151 198
369 111 568 -49 110 -162 214 -284 260 -76 28 -215 35 -294 14 -50 -13 -56
-13 -64 2 -24 43 -123 126 -190 159 -118 58 -255 70 -364 32 l-43 -15 -66 54
c-82 65 -222 135 -329 165 -87 23 -285 34 -360 19z m2240 -2955 l0 -750 -200
0 -200 0 -1 745 c0 410 1 748 4 753 2 4 92 6 200 5 l197 -3 0 -750z"/>
</g>
</svg>
